<?xml version="1.0" standalone="no"?><!DOCTYPE svg PUBLIC "-//W3C//DTD SVG 1.1//EN" "http://www.w3.org/Graphics/SVG/1.1/DTD/svg11.dtd"><svg t="1775632088236" class="icon" viewBox="0 0 1117 1024" version="1.1" xmlns="http://www.w3.org/2000/svg" p-id="8956" xmlns:xlink="http://www.w3.org/1999/xlink" width="218.1640625" height="200"><path d="M211.037091 947.2H67.490909v-258.280727a32.721455 32.721455 0 0 0-32.721454-32.721455H32.721455a32.768 32.768 0 0 0-32.721455 32.721455v291.002182c0 18.059636 14.708364 32.721455 32.721455 32.721454h178.315636a32.768 32.768 0 0 0 0-65.442909z m295.470545-242.967273c-29.184-31.976727-71.354182-48.034909-127.674181-48.034909H284.858182a32.768 32.768 0 0 0-32.721455 32.721455v291.002182c0 18.059636 14.708364 32.721455 32.721455 32.721454H378.88c56.32 0 98.583273-16.011636 127.674182-47.941818 27.694545-30.394182 41.751273-73.821091 41.751273-130.280727 0-56.878545-14.149818-100.305455-41.751273-130.234182z m-48.546909 215.924364c-19.362909 19.037091-55.202909 27.461818-85.364363 27.461818H319.906909v-228.165818h52.689455c38.4 0 67.677091 8.890182 85.364363 26.996364 17.221818 17.733818 25.925818 39.563636 25.925818 79.546181 0 49.384727-10.472727 79.034182-25.925818 94.161455z m263.354182-242.548364a32.861091 32.861091 0 0 0-30.72-21.410909h-19.037091a32.674909 32.674909 0 0 0-30.580363 21.410909l-108.218182 290.955637c-8.005818 21.410909 7.912727 44.218182 30.72 44.218181h2.699636a32.674909 32.674909 0 0 0 30.813091-21.876363l23.831273-67.490909h121.762909l23.831273 67.490909c4.654545 13.172364 17.035636 21.876364 30.859636 21.876363h1.536c22.807273 0 38.632727-22.807273 30.72-44.218181l-108.218182-290.955637z m-80.244364 188.648728l39.284364-111.988364h1.442909l38.958546 111.988364h-79.685819z m345.832728-210.059637H875.985455a32.768 32.768 0 0 0-32.721455 32.721455v291.002182c0 18.059636 14.708364 32.721455 32.721455 32.721454h2.466909a32.768 32.768 0 0 0 32.721454-32.721454v-104.075637h74.798546c84.48 0 126.789818-36.957091 126.789818-110.312727 0-72.936727-42.309818-109.335273-125.765818-109.335273z m51.013818 146.850909c-11.682909 9.029818-30.068364 14.010182-55.342546 14.010182h-71.447272v-100.864h71.447272c24.715636 0 43.194182 4.468364 54.923637 14.056727 11.636364 8.983273 17.92 19.921455 17.92 35.374546 0 18.618182-5.818182 27.927273-17.501091 37.422545zM893.207273 571.578182a113.105455 113.105455 0 0 0-112.965818-113.012364h-447.767273a113.105455 113.105455 0 0 0-112.965818 113.012364 35.560727 35.560727 0 1 0 71.214545 0c0-23.04 18.757818-41.751273 41.797818-41.751273h447.720728c23.04 0 41.704727 18.711273 41.704727 41.751273a35.560727 35.560727 0 1 0 71.261091 0z m-336.849455-163.095273a204.474182 204.474182 0 0 0 204.288-204.241454A204.474182 204.474182 0 0 0 556.357818 0a204.474182 204.474182 0 0 0-204.241454 204.288 204.474182 204.474182 0 0 0 204.241454 204.241455z m0-337.268364a133.12 133.12 0 0 1 133.026909 133.02691 133.12 133.12 0 0 1-133.026909 132.980363A133.12 133.12 0 0 1 423.330909 204.334545a133.12 133.12 0 0 1 133.026909-133.026909z" fill="#5E7CE0" p-id="8957"></path></svg>